<svg width="333" height="101" viewBox="0 0 333 101" fill="none" xmlns="http://www.w3.org/2000/svg">
<path d="M42.8409 15.4545V62H35.3409L13.4091 30.2955H13.0227V62H4.59091V15.4545H12.1364L34.0455 47.1818H34.4545V15.4545H42.8409ZM67.1193 62.6818C63.6193 62.6818 60.5966 61.9545 58.0511 60.5C55.5208 59.0303 53.5739 56.9545 52.2102 54.2727C50.8466 51.5758 50.1648 48.4015 50.1648 44.75C50.1648 41.1591 50.8466 38.0076 52.2102 35.2955C53.589 32.5682 55.5133 30.447 57.983 28.9318C60.4527 27.4015 63.3542 26.6364 66.6875 26.6364C68.839 26.6364 70.8693 26.9848 72.7784 27.6818C74.7027 28.3636 76.3996 29.4242 77.8693 30.8636C79.3542 32.303 80.5208 34.1364 81.3693 36.3636C82.2178 38.5758 82.642 41.2121 82.642 44.2727V46.7955H54.0284V41.25H74.7557C74.7405 39.6742 74.3996 38.2727 73.733 37.0455C73.0663 35.803 72.1345 34.8258 70.9375 34.1136C69.7557 33.4015 68.3769 33.0455 66.8011 33.0455C65.1193 33.0455 63.642 33.4545 62.3693 34.2727C61.0966 35.0758 60.1042 36.1364 59.392 37.4545C58.6951 38.7576 58.339 40.1894 58.3239 41.75V46.5909C58.3239 48.6212 58.6951 50.3636 59.4375 51.8182C60.1799 53.2576 61.2178 54.3636 62.5511 55.1364C63.8845 55.8939 65.4451 56.2727 67.233 56.2727C68.4299 56.2727 69.5133 56.1061 70.483 55.7727C71.4527 55.4242 72.2936 54.9167 73.0057 54.25C73.7178 53.5833 74.2557 52.7576 74.6193 51.7727L82.3011 52.6364C81.8163 54.6667 80.892 56.4394 79.5284 57.9545C78.1799 59.4545 76.4527 60.6212 74.3466 61.4545C72.2405 62.2727 69.8314 62.6818 67.1193 62.6818ZM119.784 27.0909L107.352 62H98.2614L85.8295 27.0909H94.6023L102.625 53.0227H102.989L111.034 27.0909H119.784ZM165.682 31.1591H157.182C156.939 29.7652 156.492 28.5303 155.841 27.4545C155.189 26.3636 154.379 25.4394 153.409 24.6818C152.439 23.9242 151.333 23.3561 150.091 22.9773C148.864 22.5833 147.538 22.3864 146.114 22.3864C143.583 22.3864 141.341 23.0227 139.386 24.2955C137.432 25.553 135.902 27.4015 134.795 29.8409C133.689 32.2652 133.136 35.2273 133.136 38.7273C133.136 42.2879 133.689 45.2879 134.795 47.7273C135.917 50.1515 137.447 51.9848 139.386 53.2273C141.341 54.4545 143.576 55.0682 146.091 55.0682C147.485 55.0682 148.788 54.8864 150 54.5227C151.227 54.1439 152.326 53.5909 153.295 52.8636C154.28 52.1364 155.106 51.2424 155.773 50.1818C156.455 49.1212 156.924 47.9091 157.182 46.5455L165.682 46.5909C165.364 48.803 164.674 50.8788 163.614 52.8182C162.568 54.7576 161.197 56.4697 159.5 57.9545C157.803 59.4242 155.818 60.5758 153.545 61.4091C151.273 62.2273 148.75 62.6364 145.977 62.6364C141.886 62.6364 138.235 61.6894 135.023 59.7955C131.811 57.9015 129.28 55.1667 127.432 51.5909C125.583 48.0152 124.659 43.7273 124.659 38.7273C124.659 33.7121 125.591 29.4242 127.455 25.8636C129.318 22.2879 131.856 19.553 135.068 17.6591C138.28 15.7651 141.917 14.8182 145.977 14.8182C148.568 14.8182 150.977 15.1818 153.205 15.9091C155.432 16.6364 157.417 17.7045 159.159 19.1136C160.902 20.5076 162.333 22.2197 163.455 24.25C164.591 26.2652 165.333 28.5682 165.682 31.1591ZM188.494 62.6818C184.994 62.6818 181.972 61.9545 179.426 60.5C176.896 59.0303 174.949 56.9545 173.585 54.2727C172.222 51.5758 171.54 48.4015 171.54 44.75C171.54 41.1591 172.222 38.0076 173.585 35.2955C174.964 32.5682 176.888 30.447 179.358 28.9318C181.828 27.4015 184.729 26.6364 188.062 26.6364C190.214 26.6364 192.244 26.9848 194.153 27.6818C196.078 28.3636 197.775 29.4242 199.244 30.8636C200.729 32.303 201.896 34.1364 202.744 36.3636C203.593 38.5758 204.017 41.2121 204.017 44.2727V46.7955H175.403V41.25H196.131C196.116 39.6742 195.775 38.2727 195.108 37.0455C194.441 35.803 193.509 34.8258 192.312 34.1136C191.131 33.4015 189.752 33.0455 188.176 33.0455C186.494 33.0455 185.017 33.4545 183.744 34.2727C182.472 35.0758 181.479 36.1364 180.767 37.4545C180.07 38.7576 179.714 40.1894 179.699 41.75V46.5909C179.699 48.6212 180.07 50.3636 180.812 51.8182C181.555 53.2576 182.593 54.3636 183.926 55.1364C185.259 55.8939 186.82 56.2727 188.608 56.2727C189.805 56.2727 190.888 56.1061 191.858 55.7727C192.828 55.4242 193.669 54.9167 194.381 54.25C195.093 53.5833 195.631 52.7576 195.994 51.7727L203.676 52.6364C203.191 54.6667 202.267 56.4394 200.903 57.9545C199.555 59.4545 197.828 60.6212 195.722 61.4545C193.616 62.2727 191.206 62.6818 188.494 62.6818ZM219.205 41.5455V62H210.977V27.0909H218.841V33.0227H219.25C220.053 31.0682 221.333 29.5152 223.091 28.3636C224.864 27.2121 227.053 26.6364 229.659 26.6364C232.068 26.6364 234.167 27.1515 235.955 28.1818C237.758 29.2121 239.152 30.7045 240.136 32.6591C241.136 34.6136 241.629 36.9848 241.614 39.7727V62H233.386V41.0455C233.386 38.7121 232.78 36.8864 231.568 35.5682C230.371 34.25 228.712 33.5909 226.591 33.5909C225.152 33.5909 223.871 33.9091 222.75 34.5455C221.644 35.1667 220.773 36.0682 220.136 37.25C219.515 38.4318 219.205 39.8636 219.205 41.5455ZM267.409 27.0909V33.4545H247.341V27.0909H267.409ZM252.295 18.7273H260.523V51.5C260.523 52.6061 260.689 53.4545 261.023 54.0455C261.371 54.6212 261.826 55.0152 262.386 55.2273C262.947 55.4394 263.568 55.5455 264.25 55.5455C264.765 55.5455 265.235 55.5076 265.659 55.4318C266.098 55.3561 266.432 55.2879 266.659 55.2273L268.045 61.6591C267.606 61.8106 266.977 61.9773 266.159 62.1591C265.356 62.3409 264.371 62.447 263.205 62.4773C261.144 62.5379 259.288 62.2273 257.636 61.5455C255.985 60.8485 254.674 59.7727 253.705 58.3182C252.75 56.8636 252.28 55.0455 252.295 52.8636V18.7273ZM289.369 62.6818C285.869 62.6818 282.847 61.9545 280.301 60.5C277.771 59.0303 275.824 56.9545 274.46 54.2727C273.097 51.5758 272.415 48.4015 272.415 44.75C272.415 41.1591 273.097 38.0076 274.46 35.2955C275.839 32.5682 277.763 30.447 280.233 28.9318C282.703 27.4015 285.604 26.6364 288.938 26.6364C291.089 26.6364 293.119 26.9848 295.028 27.6818C296.953 28.3636 298.65 29.4242 300.119 30.8636C301.604 32.303 302.771 34.1364 303.619 36.3636C304.468 38.5758 304.892 41.2121 304.892 44.2727V46.7955H276.278V41.25H297.006C296.991 39.6742 296.65 38.2727 295.983 37.0455C295.316 35.803 294.384 34.8258 293.188 34.1136C292.006 33.4015 290.627 33.0455 289.051 33.0455C287.369 33.0455 285.892 33.4545 284.619 34.2727C283.347 35.0758 282.354 36.1364 281.642 37.4545C280.945 38.7576 280.589 40.1894 280.574 41.75V46.5909C280.574 48.6212 280.945 50.3636 281.688 51.8182C282.43 53.2576 283.468 54.3636 284.801 55.1364C286.134 55.8939 287.695 56.2727 289.483 56.2727C290.68 56.2727 291.763 56.1061 292.733 55.7727C293.703 55.4242 294.544 54.9167 295.256 54.25C295.968 53.5833 296.506 52.7576 296.869 51.7727L304.551 52.6364C304.066 54.6667 303.142 56.4394 301.778 57.9545C300.43 59.4545 298.703 60.6212 296.597 61.4545C294.491 62.2727 292.081 62.6818 289.369 62.6818ZM311.852 62V27.0909H319.83V32.9091H320.193C320.83 30.8939 321.92 29.3409 323.466 28.25C325.027 27.1439 326.807 26.5909 328.807 26.5909C329.261 26.5909 329.769 26.6136 330.33 26.6591C330.905 26.6894 331.383 26.7424 331.761 26.8182V34.3864C331.413 34.2652 330.86 34.1591 330.102 34.0682C329.36 33.9621 328.64 33.9091 327.943 33.9091C326.443 33.9091 325.095 34.2348 323.898 34.8864C322.716 35.5227 321.784 36.4091 321.102 37.5455C320.42 38.6818 320.08 39.9924 320.08 41.4773V62H311.852Z" fill="#0F6294"/>
<path d="M6.44602 96L2.41193 81.4545H4.72017L7.55398 92.7188H7.68892L10.6364 81.4545H12.9233L15.8707 92.7259H16.0057L18.8324 81.4545H21.1477L17.1065 96H14.8977L11.8366 85.1051H11.723L8.66193 96H6.44602ZM23.1488 96V81.4545H32.2681V83.3438H25.3434V87.7756H31.7923V89.6577H25.3434V94.1108H32.3533V96H23.1488ZM35.1996 96V81.4545H40.5263C41.5585 81.4545 42.4131 81.625 43.0902 81.9659C43.7673 82.3021 44.2739 82.759 44.6101 83.3366C44.9463 83.9096 45.1143 84.5559 45.1143 85.2756C45.1143 85.8816 45.0031 86.393 44.7805 86.8097C44.558 87.2216 44.2597 87.553 43.8857 87.804C43.5163 88.0502 43.1091 88.2301 42.6641 88.3438V88.4858C43.147 88.5095 43.6181 88.6657 44.0774 88.9545C44.5414 89.2386 44.925 89.6435 45.228 90.169C45.531 90.6946 45.6825 91.3338 45.6825 92.0866C45.6825 92.83 45.5073 93.4976 45.157 94.0895C44.8113 94.6766 44.2763 95.143 43.5518 95.4886C42.8274 95.8295 41.9018 96 40.7749 96H35.1996ZM37.3942 94.1179H40.5618C41.6129 94.1179 42.3658 93.9143 42.8203 93.5071C43.2749 93.0999 43.5021 92.5909 43.5021 91.9801C43.5021 91.5208 43.3861 91.0994 43.1541 90.7159C42.9221 90.3324 42.5907 90.027 42.1598 89.7997C41.7337 89.5724 41.227 89.4588 40.6399 89.4588H37.3942V94.1179ZM37.3942 87.7472H40.3345C40.8269 87.7472 41.2696 87.6525 41.6626 87.4631C42.0604 87.2737 42.3752 87.0085 42.6072 86.6676C42.844 86.322 42.9624 85.9148 42.9624 85.446C42.9624 84.8447 42.7517 84.3404 42.3303 83.9332C41.9089 83.526 41.2625 83.3224 40.3913 83.3224H37.3942V87.7472ZM56.2188 85.2756C56.143 84.6032 55.8305 84.0824 55.2812 83.7131C54.732 83.339 54.0407 83.152 53.2074 83.152C52.6108 83.152 52.0947 83.2467 51.6591 83.4361C51.2235 83.6207 50.8849 83.8764 50.6435 84.2031C50.4067 84.5251 50.2884 84.892 50.2884 85.304C50.2884 85.6496 50.3688 85.9479 50.5298 86.1989C50.6955 86.4498 50.911 86.6605 51.1761 86.831C51.446 86.9967 51.7348 87.1364 52.0426 87.25C52.3504 87.3589 52.6463 87.4489 52.9304 87.5199L54.3509 87.8892C54.8149 88.0028 55.2907 88.1567 55.7784 88.3509C56.2661 88.545 56.7183 88.8007 57.1349 89.1179C57.5516 89.4351 57.8878 89.8281 58.1435 90.2969C58.4039 90.7656 58.5341 91.3267 58.5341 91.9801C58.5341 92.804 58.321 93.5355 57.8949 94.1747C57.4735 94.8139 56.8603 95.3182 56.0554 95.6875C55.2552 96.0568 54.2869 96.2415 53.1506 96.2415C52.0616 96.2415 51.1193 96.0687 50.3239 95.723C49.5284 95.3774 48.9058 94.8873 48.456 94.2528C48.0062 93.6136 47.7576 92.8561 47.7102 91.9801H49.9119C49.9545 92.5057 50.125 92.9437 50.4233 93.294C50.7263 93.6397 51.1122 93.8977 51.581 94.0682C52.0545 94.2339 52.5729 94.3168 53.1364 94.3168C53.7566 94.3168 54.3082 94.2197 54.7912 94.0256C55.2789 93.8267 55.6624 93.5521 55.9418 93.2017C56.2211 92.8466 56.3608 92.4323 56.3608 91.9588C56.3608 91.5279 56.2377 91.1752 55.9915 90.9006C55.75 90.6259 55.4209 90.3987 55.0043 90.2188C54.5923 90.0388 54.1259 89.8802 53.6051 89.7429L51.8864 89.2741C50.7216 88.9569 49.7983 88.4905 49.1165 87.875C48.4394 87.2595 48.1009 86.4451 48.1009 85.4318C48.1009 84.5937 48.3281 83.8622 48.7827 83.2372C49.2372 82.6122 49.8527 82.1269 50.6293 81.7812C51.4058 81.4309 52.2817 81.2557 53.2571 81.2557C54.242 81.2557 55.1108 81.4285 55.8636 81.7741C56.6212 82.1198 57.2178 82.5956 57.6534 83.2017C58.089 83.803 58.3163 84.4943 58.3352 85.2756H56.2188ZM63.3512 81.4545V96H61.1566V81.4545H63.3512ZM65.8299 83.3438V81.4545H77.087V83.3438H72.5487V96H70.3612V83.3438H65.8299ZM79.5746 96V81.4545H88.6939V83.3438H81.7692V87.7756H88.218V89.6577H81.7692V94.1108H88.7791V96H79.5746ZM100.981 96.206C100.005 96.206 99.165 96.0284 98.4595 95.6733C97.7588 95.3182 97.219 94.8352 96.8402 94.2244C96.4614 93.6089 96.272 92.9129 96.272 92.1364C96.272 91.5445 96.3951 91.0189 96.6413 90.5597C96.8875 90.0956 97.2308 89.6671 97.6712 89.2741C98.1115 88.8812 98.6205 88.4858 99.1982 88.0881L101.542 86.4332C101.94 86.1728 102.25 85.8982 102.472 85.6094C102.695 85.3158 102.806 84.9536 102.806 84.5227C102.806 84.1818 102.659 83.8551 102.366 83.5426C102.072 83.2301 101.679 83.0739 101.187 83.0739C100.846 83.0739 100.545 83.1567 100.285 83.3224C100.029 83.4882 99.8279 83.7012 99.6811 83.9616C99.5391 84.2173 99.468 84.4872 99.468 84.7713C99.468 85.1027 99.558 85.4366 99.7379 85.7727C99.9226 86.1089 100.159 86.4569 100.448 86.8168C100.737 87.1719 101.04 87.5412 101.357 87.9247L108.112 96H105.711L100.121 89.4304C99.6527 88.8764 99.2171 88.3556 98.8146 87.8679C98.4122 87.3755 98.0855 86.8783 97.8345 86.3764C97.5883 85.8698 97.4652 85.3229 97.4652 84.7358C97.4652 84.0682 97.6167 83.4763 97.9197 82.9602C98.2275 82.4394 98.656 82.0322 99.2053 81.7386C99.7545 81.4451 100.398 81.2983 101.137 81.2983C101.885 81.2983 102.527 81.4451 103.062 81.7386C103.602 82.0275 104.016 82.4134 104.305 82.8963C104.598 83.3745 104.745 83.8977 104.745 84.4659C104.745 85.1572 104.572 85.768 104.227 86.2983C103.886 86.8239 103.415 87.3068 102.813 87.7472L99.8942 89.8991C99.326 90.3158 98.9306 90.7277 98.7081 91.1349C98.4903 91.5374 98.3814 91.8523 98.3814 92.0795C98.3814 92.4962 98.4879 92.8821 98.701 93.2372C98.9188 93.5923 99.2218 93.8764 99.6101 94.0895C100.003 94.3026 100.462 94.4091 100.988 94.4091C101.528 94.4091 102.053 94.2931 102.565 94.0611C103.081 93.8243 103.547 93.4858 103.964 93.0455C104.385 92.6051 104.719 92.0772 104.965 91.4616C105.211 90.8461 105.335 90.1572 105.335 89.3949H107.252C107.252 90.3324 107.146 91.1255 106.933 91.7741C106.719 92.4181 106.461 92.9437 106.158 93.3509C105.86 93.7533 105.578 94.0682 105.313 94.2955C105.228 94.3712 105.147 94.447 105.072 94.5227C104.996 94.5985 104.915 94.6742 104.83 94.75C104.338 95.2472 103.741 95.6141 103.04 95.8509C102.344 96.0876 101.658 96.206 100.981 96.206ZM123.172 85.2756C123.096 84.6032 122.784 84.0824 122.234 83.7131C121.685 83.339 120.994 83.152 120.161 83.152C119.564 83.152 119.048 83.2467 118.612 83.4361C118.177 83.6207 117.838 83.8764 117.597 84.2031C117.36 84.5251 117.241 84.892 117.241 85.304C117.241 85.6496 117.322 85.9479 117.483 86.1989C117.649 86.4498 117.864 86.6605 118.129 86.831C118.399 86.9967 118.688 87.1364 118.996 87.25C119.304 87.3589 119.599 87.4489 119.884 87.5199L121.304 87.8892C121.768 88.0028 122.244 88.1567 122.732 88.3509C123.219 88.545 123.671 88.8007 124.088 89.1179C124.505 89.4351 124.841 89.8281 125.097 90.2969C125.357 90.7656 125.487 91.3267 125.487 91.9801C125.487 92.804 125.274 93.5355 124.848 94.1747C124.427 94.8139 123.813 95.3182 123.009 95.6875C122.208 96.0568 121.24 96.2415 120.104 96.2415C119.015 96.2415 118.072 96.0687 117.277 95.723C116.482 95.3774 115.859 94.8873 115.409 94.2528C114.959 93.6136 114.711 92.8561 114.663 91.9801H116.865C116.908 92.5057 117.078 92.9437 117.376 93.294C117.679 93.6397 118.065 93.8977 118.534 94.0682C119.008 94.2339 119.526 94.3168 120.089 94.3168C120.71 94.3168 121.261 94.2197 121.744 94.0256C122.232 93.8267 122.616 93.5521 122.895 93.2017C123.174 92.8466 123.314 92.4323 123.314 91.9588C123.314 91.5279 123.191 91.1752 122.945 90.9006C122.703 90.6259 122.374 90.3987 121.957 90.2188C121.545 90.0388 121.079 89.8802 120.558 89.7429L118.839 89.2741C117.675 88.9569 116.751 88.4905 116.07 87.875C115.393 87.2595 115.054 86.4451 115.054 85.4318C115.054 84.5937 115.281 83.8622 115.736 83.2372C116.19 82.6122 116.806 82.1269 117.582 81.7812C118.359 81.4309 119.235 81.2557 120.21 81.2557C121.195 81.2557 122.064 81.4285 122.817 81.7741C123.574 82.1198 124.171 82.5956 124.607 83.2017C125.042 83.803 125.269 84.4943 125.288 85.2756H123.172ZM140.745 88.7273C140.745 90.2803 140.461 91.6155 139.892 92.733C139.324 93.8456 138.545 94.7027 137.556 95.304C136.571 95.9006 135.451 96.1989 134.196 96.1989C132.937 96.1989 131.812 95.9006 130.823 95.304C129.838 94.7027 129.061 93.8433 128.493 92.7259C127.925 91.6084 127.641 90.2756 127.641 88.7273C127.641 87.1742 127.925 85.8414 128.493 84.7287C129.061 83.6113 129.838 82.7543 130.823 82.1577C131.812 81.5563 132.937 81.2557 134.196 81.2557C135.451 81.2557 136.571 81.5563 137.556 82.1577C138.545 82.7543 139.324 83.6113 139.892 84.7287C140.461 85.8414 140.745 87.1742 140.745 88.7273ZM138.571 88.7273C138.571 87.5436 138.38 86.5469 137.996 85.7372C137.617 84.9228 137.096 84.3073 136.434 83.8906C135.775 83.4692 135.03 83.2585 134.196 83.2585C133.358 83.2585 132.61 83.4692 131.952 83.8906C131.294 84.3073 130.773 84.9228 130.39 85.7372C130.011 86.5469 129.821 87.5436 129.821 88.7273C129.821 89.911 130.011 90.91 130.39 91.7244C130.773 92.5341 131.294 93.1496 131.952 93.571C132.61 93.9877 133.358 94.196 134.196 94.196C135.03 94.196 135.775 93.9877 136.434 93.571C137.096 93.1496 137.617 92.5341 137.996 91.7244C138.38 90.91 138.571 89.911 138.571 88.7273ZM143.481 96V81.4545H152.501V83.3438H145.675V87.7756H151.854V89.6577H145.675V96H143.481ZM154.482 83.3438V81.4545H165.739V83.3438H161.201V96H159.013V83.3438H154.482ZM171.075 96L167.041 81.4545H169.349L172.183 92.7188H172.318L175.265 81.4545H177.552L180.5 92.7259H180.635L183.461 81.4545H185.777L181.735 96H179.527L176.466 85.1051H176.352L173.291 96H171.075ZM187.756 96H185.427L190.661 81.4545H193.197L198.431 96H196.102L191.989 84.0966H191.876L187.756 96ZM188.147 90.304H195.704V92.1506H188.147V90.304ZM200.532 96V81.4545H205.716C206.843 81.4545 207.778 81.6487 208.522 82.0369C209.27 82.4252 209.828 82.9626 210.198 83.6491C210.567 84.331 210.752 85.1193 210.752 86.0142C210.752 86.9044 210.565 87.688 210.191 88.3651C209.821 89.0374 209.263 89.5606 208.515 89.9347C207.771 90.3087 206.836 90.4957 205.709 90.4957H201.782V88.6065H205.51C206.221 88.6065 206.798 88.5047 207.243 88.3011C207.693 88.0975 208.022 87.8016 208.23 87.4134C208.439 87.0251 208.543 86.5587 208.543 86.0142C208.543 85.465 208.436 84.9891 208.223 84.5866C208.015 84.1842 207.686 83.8764 207.236 83.6634C206.791 83.4455 206.206 83.3366 205.482 83.3366H202.726V96H200.532ZM207.712 89.4375L211.306 96H208.806L205.283 89.4375H207.712ZM213.422 96V81.4545H222.542V83.3438H215.617V87.7756H222.066V89.6577H215.617V94.1108H222.627V96H213.422ZM242.847 86.1847H240.631C240.546 85.7112 240.387 85.2945 240.155 84.9347C239.923 84.5748 239.639 84.2694 239.303 84.0185C238.967 83.7675 238.59 83.5781 238.174 83.4503C237.762 83.3224 237.324 83.2585 236.86 83.2585C236.022 83.2585 235.271 83.4692 234.608 83.8906C233.95 84.312 233.429 84.9299 233.046 85.7443C232.667 86.5587 232.478 87.553 232.478 88.7273C232.478 89.911 232.667 90.91 233.046 91.7244C233.429 92.5388 233.953 93.1544 234.615 93.571C235.278 93.9877 236.024 94.196 236.853 94.196C237.312 94.196 237.748 94.1345 238.159 94.0114C238.576 93.8835 238.953 93.6965 239.289 93.4503C239.625 93.2041 239.909 92.9034 240.141 92.5483C240.378 92.1884 240.541 91.7765 240.631 91.3125L242.847 91.3196C242.729 92.0346 242.499 92.6927 242.158 93.294C241.822 93.8906 241.389 94.4067 240.858 94.8423C240.333 95.2732 239.731 95.607 239.054 95.8438C238.377 96.0805 237.639 96.1989 236.838 96.1989C235.579 96.1989 234.457 95.9006 233.472 95.304C232.487 94.7027 231.711 93.8433 231.142 92.7259C230.579 91.6084 230.297 90.2756 230.297 88.7273C230.297 87.1742 230.581 85.8414 231.15 84.7287C231.718 83.6113 232.494 82.7543 233.479 82.1577C234.464 81.5563 235.584 81.2557 236.838 81.2557C237.61 81.2557 238.33 81.367 238.998 81.5895C239.67 81.8073 240.274 82.1293 240.809 82.5554C241.344 82.9768 241.786 83.4929 242.137 84.1037C242.487 84.7098 242.724 85.4034 242.847 86.1847ZM245.473 96V81.4545H250.658C251.785 81.4545 252.72 81.6487 253.463 82.0369C254.211 82.4252 254.77 82.9626 255.139 83.6491C255.509 84.331 255.693 85.1193 255.693 86.0142C255.693 86.9044 255.506 87.688 255.132 88.3651C254.763 89.0374 254.204 89.5606 253.456 89.9347C252.713 90.3087 251.777 90.4957 250.651 90.4957H246.723V88.6065H250.452C251.162 88.6065 251.74 88.5047 252.185 88.3011C252.634 88.0975 252.964 87.8016 253.172 87.4134C253.38 87.0251 253.484 86.5587 253.484 86.0142C253.484 85.465 253.378 84.9891 253.165 84.5866C252.956 84.1842 252.627 83.8764 252.178 83.6634C251.732 83.4455 251.148 83.3366 250.423 83.3366H247.668V96H245.473ZM252.653 89.4375L256.247 96H253.747L250.224 89.4375H252.653ZM258.364 96V81.4545H267.483V83.3438H260.558V87.7756H267.007V89.6577H260.558V94.1108H267.568V96H258.364ZM271.643 96H269.314L274.548 81.4545H277.083L282.318 96H279.988L275.876 84.0966H275.762L271.643 96ZM272.034 90.304H279.591V92.1506H272.034V90.304ZM281.982 83.3438V81.4545H293.239V83.3438H288.701V96H286.513V83.3438H281.982ZM297.922 81.4545V96H295.727V81.4545H297.922ZM313.752 88.7273C313.752 90.2803 313.468 91.6155 312.9 92.733C312.332 93.8456 311.553 94.7027 310.564 95.304C309.579 95.9006 308.459 96.1989 307.204 96.1989C305.945 96.1989 304.82 95.9006 303.831 95.304C302.846 94.7027 302.069 93.8433 301.501 92.7259C300.933 91.6084 300.649 90.2756 300.649 88.7273C300.649 87.1742 300.933 85.8414 301.501 84.7287C302.069 83.6113 302.846 82.7543 303.831 82.1577C304.82 81.5563 305.945 81.2557 307.204 81.2557C308.459 81.2557 309.579 81.5563 310.564 82.1577C311.553 82.7543 312.332 83.6113 312.9 84.7287C313.468 85.8414 313.752 87.1742 313.752 88.7273ZM311.579 88.7273C311.579 87.5436 311.387 86.5469 311.004 85.7372C310.625 84.9228 310.104 84.3073 309.441 83.8906C308.783 83.4692 308.038 83.2585 307.204 83.2585C306.366 83.2585 305.618 83.4692 304.96 83.8906C304.302 84.3073 303.781 84.9228 303.397 85.7372C303.019 86.5469 302.829 87.5436 302.829 88.7273C302.829 89.911 303.019 90.91 303.397 91.7244C303.781 92.5341 304.302 93.1496 304.96 93.571C305.618 93.9877 306.366 94.196 307.204 94.196C308.038 94.196 308.783 93.9877 309.441 93.571C310.104 93.1496 310.625 92.5341 311.004 91.7244C311.387 90.91 311.579 89.911 311.579 88.7273ZM328.229 81.4545V96H326.212L318.818 85.3324H318.683V96H316.489V81.4545H318.52L325.92 92.1364H326.055V81.4545H328.229Z" fill="#41B3E6"/>
</svg>
